<?xml version="1.0"?>
<svg xmlns="http://www.w3.org/2000/svg" height="512px" viewBox="0 0 64 64" width="512px" class=""><g><g fill="#78b9eb"><path d="m11 25h42v14h-42z" data-original="#78B9EB" class="active-path" style="fill:#C95CDF" data-old_color="#78B9EB"/><path d="m61 43v9a2.006 2.006 0 0 1 -2 2h-8v-11z" data-original="#78B9EB" class="active-path" style="fill:#C95CDF" data-old_color="#78B9EB"/><path d="m13 43v11h-8a2.006 2.006 0 0 1 -2-2v-9z" data-original="#78B9EB" class="active-path" style="fill:#C95CDF" data-old_color="#78B9EB"/><path d="m51 39v20a2.006 2.006 0 0 1 -2 2h-34a2.006 2.006 0 0 1 -2-2v-20h6v7h-2v4h2v3l2 2 2-2v-3h2v-4h-2v-7h18v7h-2v4h2v3l2 2 2-2v-3h2v-4h-2v-7z" data-original="#78B9EB" class="active-path" style="fill:#C95CDF" data-old_color="#78B9EB"/><path d="m49 8v17h-6v-17l3 2z" data-original="#78B9EB" class="active-path" style="fill:#C95CDF" data-old_color="#78B9EB"/><path d="m19 6v19h20v-19zm16 10h-12v-5h12z" data-original="#78B9EB" class="active-path" style="fill:#C95CDF" data-old_color="#78B9EB"/></g><path d="m59 36h-5v-11a1 1 0 0 0 -1-1h-3v-16a1 1 0 0 0 -.14-.51l-3-5a1.037 1.037 0 0 0 -1.72 0l-3 5a1 1 0 0 0 -.14.51v16h-2v-18a1 1 0 0 0 -1-1h-22a3.009 3.009 0 0 0 -3 3v16h-3a1 1 0 0 0 -1 1v11h-5a3.009 3.009 0 0 0 -3 3v13a3.009 3.009 0 0 0 3 3h7v4a3.009 3.009 0 0 0 3 3h34a3.009 3.009 0 0 0 3-3v-4h7a3.009 3.009 0 0 0 3-3v-13a3.009 3.009 0 0 0 -3-3zm-13-31.06 1.65 2.76-1.65 1.1-1.65-1.1zm2 4.93v14.13h-1v-13.46zm-4 0 1 .67v13.46h-1zm-24-2.87h18v17h-18zm-4 1a1 1 0 0 1 1-1h1v17h-2zm-4 45h-7a1 1 0 0 1 -1-1v-8h8zm0-11h-8v-3a1 1 0 0 1 1-1h5v1a1 1 0 0 0 1 1h1zm38 17a1 1 0 0 1 -1 1h-34a1 1 0 0 1 -1-1v-19h4v5h-1a1 1 0 0 0 -1 1v4a1 1 0 0 0 1 1h1v2a1.033 1.033 0 0 0 .29.71l2 2a1.014 1.014 0 0 0 1.42 0l2-2a1.033 1.033 0 0 0 .29-.71v-2h1a1 1 0 0 0 1-1v-4a1 1 0 0 0 -1-1h-1v-5h16v5h-1a1 1 0 0 0 -1 1v4a1 1 0 0 0 1 1h1v2a1.033 1.033 0 0 0 .29.71l2 2a1.014 1.014 0 0 0 1.42 0l2-2a1.033 1.033 0 0 0 .29-.71v-2h1a1 1 0 0 0 1-1v-4a1 1 0 0 0 -1-1h-1v-5h4zm-26-12v2h-6v-2zm-4-2v-5h2v5zm2 6v1.59l-1 1-1-1v-1.59zm24-4v2h-6v-2zm-4-2v-5h2v5zm2 6v1.59l-1 1-1-1v-1.59zm-32-13v-12h40v12zm48 14a1 1 0 0 1 -1 1h-7v-9h8zm0-10h-8v-2h1a1 1 0 0 0 1-1v-1h5a1 1 0 0 1 1 1z" fill="#006df0" data-original="#006DF0" class="" data-old_color="#006df0" style="fill:#80478D"/><path d="m35 10h-12a1 1 0 0 0 -1 1v5a1 1 0 0 0 1 1h12a1 1 0 0 0 1-1v-5a1 1 0 0 0 -1-1zm-1 5h-10v-3h10z" fill="#006df0" data-original="#006DF0" class="" data-old_color="#006df0" style="fill:#80478D"/></g> </svg>
