<?xml version="1.0"?>
<svg xmlns="http://www.w3.org/2000/svg" height="512px" viewBox="0 0 64 64" width="512px" class=""><g><path d="m58 36v21a4 4 0 0 1 -4 4h-44a4 4 0 0 1 -4-4v-21l.03-.12a3.906 3.906 0 0 0 .97.12h7v7h8v-7h21v7h8v-7h6a3.906 3.906 0 0 0 .97-.12z" fill="#78b9eb" data-original="#78B9EB" class="" style="fill:#C95CDF" data-old_color="#78b9eb"/><path d="m61 16v16a4 4 0 0 1 -3.03 3.88 3.906 3.906 0 0 1 -.97.12h-6v-4h-8v4h-21v-4h-8v4h-7a3.906 3.906 0 0 1 -.97-.12 4 4 0 0 1 -3.03-3.88v-16a2.006 2.006 0 0 1 2-2h54a2.006 2.006 0 0 1 2 2z" fill="#78b9eb" data-original="#78B9EB" class="" style="fill:#C95CDF" data-old_color="#78b9eb"/><g fill="#006df0"><path d="m59 13h-13v-7a4 4 0 0 0 -4-4h-20a4 4 0 0 0 -4 4v7h-13a3.009 3.009 0 0 0 -3 3v16a5.014 5.014 0 0 0 3 4.58v20.42a5 5 0 0 0 5 5h44a5 5 0 0 0 5-5v-20.42a5.014 5.014 0 0 0 3-4.58v-16a3.009 3.009 0 0 0 -3-3zm-39-7a2.006 2.006 0 0 1 2-2h20a2.006 2.006 0 0 1 2 2v7h-2v-5a2.006 2.006 0 0 0 -2-2h-16a2.006 2.006 0 0 0 -2 2v5h-2zm20 2v5h-16v-5zm17 49a3.009 3.009 0 0 1 -3 3h-44a3.009 3.009 0 0 1 -3-3v-20h6v6a1 1 0 0 0 1 1h8a1 1 0 0 0 1-1v-6h19v6a1 1 0 0 0 1 1h8a1 1 0 0 0 1-1v-6h5zm-42-15v-9h6v9zm29 0v-9h6v9zm16-10a3.009 3.009 0 0 1 -3 3h-5v-3a1 1 0 0 0 -1-1h-8a1 1 0 0 0 -1 1v3h-19v-3a1 1 0 0 0 -1-1h-8a1 1 0 0 0 -1 1v3h-6a3.009 3.009 0 0 1 -3-3v-16a1 1 0 0 1 1-1h54a1 1 0 0 1 1 1z" data-original="#006DF0" class="active-path" style="fill:#80478D" data-old_color="#006DF0"/><circle cx="18" cy="39" r="2" data-original="#006DF0" class="active-path" style="fill:#80478D" data-old_color="#006DF0"/><circle cx="47" cy="39" r="2" data-original="#006DF0" class="active-path" style="fill:#80478D" data-old_color="#006DF0"/><path d="m54 38h2v2h-2z" data-original="#006DF0" class="active-path" style="fill:#80478D" data-old_color="#006DF0"/><path d="m54 42h2v2h-2z" data-original="#006DF0" class="active-path" style="fill:#80478D" data-old_color="#006DF0"/><path d="m54 46h2v2h-2z" data-original="#006DF0" class="active-path" style="fill:#80478D" data-old_color="#006DF0"/><path d="m54 50h2v2h-2z" data-original="#006DF0" class="active-path" style="fill:#80478D" data-old_color="#006DF0"/><path d="m51 57v2h3a2 2 0 0 0 2-2v-3h-2v3z" data-original="#006DF0" class="active-path" style="fill:#80478D" data-old_color="#006DF0"/><path d="m8 38h2v2h-2z" data-original="#006DF0" class="active-path" style="fill:#80478D" data-old_color="#006DF0"/><path d="m8 42h2v2h-2z" data-original="#006DF0" class="active-path" style="fill:#80478D" data-old_color="#006DF0"/><path d="m8 46h2v2h-2z" data-original="#006DF0" class="active-path" style="fill:#80478D" data-old_color="#006DF0"/><path d="m8 50h2v2h-2z" data-original="#006DF0" class="active-path" style="fill:#80478D" data-old_color="#006DF0"/><path d="m10 54h-2v3a2 2 0 0 0 2 2h3v-2h-3z" data-original="#006DF0" class="active-path" style="fill:#80478D" data-old_color="#006DF0"/><path d="m15 57h2v2h-2z" data-original="#006DF0" class="active-path" style="fill:#80478D" data-old_color="#006DF0"/><path d="m19 57h2v2h-2z" data-original="#006DF0" class="active-path" style="fill:#80478D" data-old_color="#006DF0"/><path d="m23 57h2v2h-2z" data-original="#006DF0" class="active-path" style="fill:#80478D" data-old_color="#006DF0"/><path d="m27 57h2v2h-2z" data-original="#006DF0" class="active-path" style="fill:#80478D" data-old_color="#006DF0"/><path d="m31 57h2v2h-2z" data-original="#006DF0" class="active-path" style="fill:#80478D" data-old_color="#006DF0"/><path d="m35 57h2v2h-2z" data-original="#006DF0" class="active-path" style="fill:#80478D" data-old_color="#006DF0"/><path d="m39 57h2v2h-2z" data-original="#006DF0" class="active-path" style="fill:#80478D" data-old_color="#006DF0"/><path d="m43 57h2v2h-2z" data-original="#006DF0" class="active-path" style="fill:#80478D" data-old_color="#006DF0"/><path d="m47 57h2v2h-2z" data-original="#006DF0" class="active-path" style="fill:#80478D" data-old_color="#006DF0"/><path d="m5 18v2h2v-2h2v-2h-2a2 2 0 0 0 -2 2z" data-original="#006DF0" class="active-path" style="fill:#80478D" data-old_color="#006DF0"/></g></g> </svg>
