<svg xmlns="http://www.w3.org/2000/svg" xmlns:xlink="http://www.w3.org/1999/xlink" viewBox="0 0 512 512"><defs><style>.cls-1{stroke-miterlimit:10;stroke-width:11px;fill:url(#Degradado_sin_nombre_2);stroke:url(#Degradado_sin_nombre_2-2);}</style><linearGradient id="Degradado_sin_nombre_2" x1="86.31" y1="41.02" x2="420.29" y2="470.04" gradientUnits="userSpaceOnUse"><stop offset="0.05" stop-color="#c96dd7"/><stop offset="0.95" stop-color="#3123ae"/></linearGradient><linearGradient id="Degradado_sin_nombre_2-2" x1="82.02" y1="35.51" x2="382.55" y2="421.55" xlink:href="#Degradado_sin_nombre_2"/></defs><title>cat-5</title><g id="Capa_2" data-name="Capa 2"><path d="M474.21,338.3A41.89,41.89,0,0,1,490.84,355q5.9,10.71,5.9,24.79a48.86,48.86,0,0,1-6.95,26,47.07,47.07,0,0,1-19.47,17.65q-12.54,6.3-28.95,6.3a82.84,82.84,0,0,1-25.48-4,67.7,67.7,0,0,1-21.47-11.13,13.6,13.6,0,0,1-4.42-4.94A16.26,16.26,0,0,1,391.79,394a9.19,9.19,0,0,1,7.47-3.88,13.92,13.92,0,0,1,4.63.73,36.63,36.63,0,0,1,5.48,2.63,115,115,0,0,0,15.37,7.87,39.54,39.54,0,0,0,15.16,2.84q12.83,0,19.47-5.88T466,380.84q0-10.92-6.84-17.23t-18.42-6.3a44.81,44.81,0,0,0-13.05,1.79,57.7,57.7,0,0,0-12.85,6,17.63,17.63,0,0,1-8.84,2.53,12.49,12.49,0,0,1-8.53-3.05,10.25,10.25,0,0,1-3.47-8.09V295.34q0-7.36,4-11.35c2.67-2.66,6.45-4,11.37-4h67.79q15.57,0,15.58,12.39,0,12.62-15.58,12.61H426v33q10.11-5.67,23.79-5.67A49.31,49.31,0,0,1,474.21,338.3Z"/><path class="cls-1" d="M453.46,99.5,435.23,60.62l-7.42-18.44-11.09.72c-1.93.11-3.85.24-5.76.37l-.57,0h0c-84.85,6.1-151.57,32.37-154.17,33.11C251.1,75,185.68,48,94.6,42.83h-.71l-7.28-2-4.3,9a10.64,10.64,0,0,0-.49,1L59,99.5H25.5v319h37a481.64,481.64,0,0,1,155.68,25.88c6.23,16.28,20.58,26.71,37.84,26.71s31.61-10.43,37.84-26.71a484,484,0,0,1,71.69-18.45V396.65a507.88,507.88,0,0,0-69,16.61V154.47a481.2,481.2,0,0,1,153-25h10v115h27V99.5Zm-238,313.65a500.69,500.69,0,0,0-152-23.65h-10v-260h10a475.75,475.75,0,0,1,152,25Zm54,17.35h-27V178.26q6.69-.13,13.6-.13t13.4.13ZM279,129.31l0,0c-4.85,1.73-6.8.82-8.11,1.82-2.29,1.74,1.07,6.45-1.11,9.18-1.67,2.08-4.72.7-12.95.66-9.19,0-12.77,1.64-14.55-.66a4.86,4.86,0,0,1-.57-3.89v-.12l.09-.51c.07-.42.14-.83.18-1.23a3,3,0,0,0-.8-2.9c-1.23-1-2.92-.42-8.14-2.36h0a505.19,505.19,0,0,0-144.3-29l13.13-28.21c84.28,6.24,143.05,31.33,149.91,33.33a12.65,12.65,0,0,0,8.54,0c6.67-2,65.88-27.11,149.91-33.33l13.13,28.22A504.83,504.83,0,0,0,279,129.31Z"/></g></svg>