<svg xmlns="http://www.w3.org/2000/svg" xmlns:xlink="http://www.w3.org/1999/xlink" viewBox="0 0 512 512"><defs><style>.cls-1{stroke-miterlimit:10;stroke-width:11px;fill:url(#Degradado_sin_nombre_2);stroke:url(#Degradado_sin_nombre_2-2);}</style><linearGradient id="Degradado_sin_nombre_2" x1="80.63" y1="41.13" x2="414.61" y2="470.14" gradientUnits="userSpaceOnUse"><stop offset="0.05" stop-color="#c96dd7"/><stop offset="0.95" stop-color="#3123ae"/></linearGradient><linearGradient id="Degradado_sin_nombre_2-2" x1="76.34" y1="35.62" x2="376.86" y2="421.66" xlink:href="#Degradado_sin_nombre_2"/></defs><title>cat-infinito</title><g id="Capa_2" data-name="Capa 2"><path d="M392.44,367.27q-11.08,7.07-26.9,6.88-23.22-.27-36.14-16.11T316.81,314.5q.33-27.67,13.61-43.22T366.92,256q16.31.19,27.1,7.52t14.83,20.88a37.83,37.83,0,0,1,15.52-17.48q10.45-6.21,24.29-6,21.73.25,34.3,15.23t12.25,40.47q-.3,25.73-13.07,40.29t-34.76,14.31q-14.08-.17-24.64-6.61A33.76,33.76,0,0,1,408.12,347,38.11,38.11,0,0,1,392.44,367.27Zm-23.56-24.69q23,.27,23.29-27.2t-22.65-27.73q-23-.27-23.3,27.2T368.88,342.58Zm75.21-49.92q-22.24-.26-22.51,23.06t22,23.59q22,.26,22.26-23.07T444.09,292.66Z"/><path class="cls-1" d="M447.78,99.61,429.55,60.72l-7.43-18.43L411,43c-1.93.11-3.85.24-5.76.37l-.58,0h0c-84.85,6.09-151.56,32.37-154.17,33.11C245.42,75.09,180,48.11,88.92,42.94H88.2l-7.27-2q-2.16,4.51-4.31,9-.25.46-.48,1L53.29,99.61H19.82v319h37a481.64,481.64,0,0,1,155.68,25.88c6.23,16.28,20.58,26.71,37.84,26.71s31.61-10.43,37.84-26.71A482.76,482.76,0,0,1,359.82,426V396.75a507.91,507.91,0,0,0-69,16.62V154.57a481.47,481.47,0,0,1,153-25h10v115h27v-145Zm-237,313.65a500.69,500.69,0,0,0-152-23.65h-10v-260h10a476,476,0,0,1,152,24.95Zm53,17.35h-27V178.37q6.68-.13,13.6-.13t13.4.13Zm9.88-301.3,0,0c-4.86,1.73-6.8.82-8.12,1.82-2.29,1.74,1.07,6.45-1.11,9.18-1.66,2.08-4.72.7-12.95.66-9.18,0-12.77,1.64-14.55-.66a4.9,4.9,0,0,1-.57-3.89l0-.12c0-.17.05-.34.08-.51.07-.42.14-.83.18-1.23a3,3,0,0,0-.79-2.9c-1.24-1-2.93-.42-8.15-2.36h0a505.25,505.25,0,0,0-144.31-29L96.51,72.14c84.29,6.24,143.06,31.33,149.92,33.33a12.62,12.62,0,0,0,8.53,0c6.67-2,65.88-27.11,149.91-33.33L418,100.36A504.83,504.83,0,0,0,273.7,129.31Z"/></g></svg>