<?xml version="1.0" encoding="utf-8"?>
<!-- Generator: Adobe Illustrator 24.0.1, SVG Export Plug-In . SVG Version: 6.00 Build 0)  -->
<svg version="1.1" id="Gradient" xmlns="http://www.w3.org/2000/svg" xmlns:xlink="http://www.w3.org/1999/xlink" x="0px" y="0px"
	 viewBox="0 0 25 25" style="enable-background:new 0 0 25 25;" xml:space="preserve">
<style type="text/css">
	.st0{fill:url(#SVGID_1_);}
	.st1{fill:none;stroke:url(#SVGID_2_);stroke-width:2;stroke-miterlimit:10;}
	.st2{fill:none;stroke:url(#SVGID_3_);stroke-width:2;stroke-miterlimit:10;}
	.st3{fill:none;stroke:#8A2BE2;stroke-width:2;stroke-miterlimit:10;}
</style>
<g>
	<linearGradient id="SVGID_1_" gradientUnits="userSpaceOnUse" x1="9.1179" y1="5.5652" x2="16.0817" y2="5.5652">
		<stop  offset="0" style="stop-color:#C96DD7"/>
		<stop  offset="0.95" style="stop-color:#3123AE"/>
	</linearGradient>
	<path class="st0" d="M14.5,6.3c-0.1,0.1-0.2,0.3-0.2,0.5L14.7,9l-1.8-1c-0.2-0.1-0.4-0.1-0.6,0l-1.8,1l0.4-2.2c0-0.2,0-0.4-0.2-0.5
		L9.1,4.7l2.1-0.3c0.2,0,0.4-0.2,0.4-0.3l0.9-2l0.9,2c0.1,0.2,0.2,0.3,0.4,0.3l2.1,0.3L14.5,6.3z"/>
	<linearGradient id="SVGID_2_" gradientUnits="userSpaceOnUse" x1="1.1485" y1="18.7796" x2="10.1485" y2="18.7796">
		<stop  offset="0" style="stop-color:#C96DD7"/>
		<stop  offset="0.95" style="stop-color:#3123AE"/>
	</linearGradient>
	<rect x="2.1" y="15.3" class="st1" width="7" height="7"/>
	
		<linearGradient id="SVGID_3_" gradientUnits="userSpaceOnUse" x1="14.4416" y1="18.7796" x2="23.4416" y2="18.7796" gradientTransform="matrix(-1 0 0 -1 38.5901 37.5592)">
		<stop  offset="0" style="stop-color:#C96DD7"/>
		<stop  offset="0.95" style="stop-color:#3123AE"/>
	</linearGradient>
	<rect x="16.1" y="15.3" transform="matrix(-1 -1.224647e-16 1.224647e-16 -1 39.2969 37.5592)" class="st2" width="7" height="7"/>
	<rect x="9.1" y="12.3" class="st3" width="7" height="10"/>
</g>
</svg>
