<?xml version="1.0" encoding="utf-8"?>
<!-- Generator: Adobe Illustrator 24.0.1, SVG Export Plug-In . SVG Version: 6.00 Build 0)  -->
<svg version="1.1" id="Capa_1" xmlns="http://www.w3.org/2000/svg" xmlns:xlink="http://www.w3.org/1999/xlink" x="0px" y="0px"
	 viewBox="0 0 24 24" style="enable-background:new 0 0 24 24;" xml:space="preserve">
<style type="text/css">
	.st0{fill:none;}
	.st1{fill:url(#SVGID_1_);}
</style>
<path class="st0" d="M0,0h24v24H0V0z"/>
<linearGradient id="SVGID_1_" gradientUnits="userSpaceOnUse" x1="2.99" y1="12" x2="21" y2="12">
	<stop  offset="5.000000e-02" style="stop-color:#C96DD7"/>
	<stop  offset="0.95" style="stop-color:#3123AE"/>
</linearGradient>
<path class="st1" d="M17,13h-5v5h5V13z M16,2v2H8V2H6v2H5C3.9,4,3,4.9,3,6l0,14c0,1.1,0.9,2,2,2h14c1.1,0,2-0.9,2-2V6
	c0-1.1-0.9-2-2-2h-1V2H16z M19,20H5V9h14V20z"/>
</svg>
