<svg xmlns="http://www.w3.org/2000/svg" xmlns:xlink="http://www.w3.org/1999/xlink" viewBox="0 0 512 512"><defs><style>.cls-1{stroke-miterlimit:10;stroke-width:11px;fill:url(#Degradado_sin_nombre_2);stroke:url(#Degradado_sin_nombre_2-2);}</style><linearGradient id="Degradado_sin_nombre_2" x1="86.31" y1="41.13" x2="420.29" y2="470.14" gradientUnits="userSpaceOnUse"><stop offset="0.05" stop-color="#c96dd7"/><stop offset="0.95" stop-color="#3123ae"/></linearGradient><linearGradient id="Degradado_sin_nombre_2-2" x1="82.02" y1="35.62" x2="382.55" y2="421.66" xlink:href="#Degradado_sin_nombre_2"/></defs><title>cat-15</title><g id="Capa_2" data-name="Capa 2"><path d="M380.22,306.55q0,7.56-8.89,7.56H329.67q-9,0-9-7.56t9-7.44H341V250l-10.72,6.36a7.11,7.11,0,0,1-3.65,1.08,6.55,6.55,0,0,1-5.18-2.52,8.52,8.52,0,0,1-2.13-5.64A6.91,6.91,0,0,1,323.1,243l19.24-11.4a16.62,16.62,0,0,1,8.53-2.52,9.07,9.07,0,0,1,6.57,2.46,8.79,8.79,0,0,1,2.56,6.66v61h11.33Q380.21,299.11,380.22,306.55Z"/><path d="M474.21,338.41a41.82,41.82,0,0,1,16.63,16.7q5.9,10.71,5.9,24.79A48.88,48.88,0,0,1,489.79,406a47.21,47.21,0,0,1-19.47,17.65q-12.54,6.3-28.95,6.3a82.84,82.84,0,0,1-25.48-4,67.52,67.52,0,0,1-21.47-11.14,13.58,13.58,0,0,1-4.42-4.93,16.26,16.26,0,0,1,1.79-15.76,9.2,9.2,0,0,1,7.47-3.89,13.92,13.92,0,0,1,4.63.74,36.4,36.4,0,0,1,5.48,2.62,114,114,0,0,0,15.37,7.88,39.73,39.73,0,0,0,15.16,2.84q12.83,0,19.47-5.88T466,381q0-10.92-6.84-17.23t-18.42-6.3a45.16,45.16,0,0,0-13.05,1.78,57.77,57.77,0,0,0-12.85,6,17.71,17.71,0,0,1-8.84,2.52,12.49,12.49,0,0,1-8.53-3,10.25,10.25,0,0,1-3.47-8.09V295.44q0-7.35,4-11.34c2.67-2.66,6.45-4,11.37-4h67.79q15.57,0,15.58,12.39,0,12.6-15.58,12.61H426v33q10.11-5.67,23.79-5.67A49.2,49.2,0,0,1,474.21,338.41Z"/><path class="cls-1" d="M453.46,99.61,435.23,60.72l-7.42-18.43L416.72,43c-1.93.11-3.85.24-5.76.37l-.57,0h0c-84.85,6.09-151.57,32.37-154.17,33.11C251.1,75.09,185.68,48.11,94.6,42.94h-.71l-7.28-2q-2.14,4.51-4.3,9c-.18.31-.34.63-.49,1L59,99.61H25.5v319h37a481.64,481.64,0,0,1,155.68,25.88c6.23,16.28,20.58,26.71,37.84,26.71s31.61-10.43,37.84-26.71A482.76,482.76,0,0,1,365.5,426V396.75a507.91,507.91,0,0,0-69,16.62V154.57a481.47,481.47,0,0,1,153-25h10v115h27v-145Zm-238,313.65a500.69,500.69,0,0,0-152-23.65h-10v-260h10a476,476,0,0,1,152,24.95Zm54,17.35h-27V178.37q6.69-.13,13.6-.13t13.4.13ZM279,129.31l0,0c-4.85,1.73-6.8.82-8.11,1.82-2.29,1.74,1.07,6.45-1.11,9.18-1.67,2.08-4.72.7-12.95.66-9.19,0-12.77,1.64-14.55-.66a4.86,4.86,0,0,1-.57-3.89v-.12l.09-.51c.07-.42.14-.83.18-1.23a3,3,0,0,0-.8-2.9c-1.23-1-2.92-.42-8.14-2.36h0a505.19,505.19,0,0,0-144.3-29l13.13-28.21c84.28,6.24,143.05,31.33,149.91,33.33a12.65,12.65,0,0,0,8.54,0c6.67-2,65.88-27.11,149.91-33.33l13.13,28.22A504.83,504.83,0,0,0,279,129.31Z"/></g></svg>