<?xml version="1.0" encoding="utf-8"?>
<!-- Generator: Adobe Illustrator 24.0.1, SVG Export Plug-In . SVG Version: 6.00 Build 0)  -->
<svg version="1.1" id="Capa_1" xmlns="http://www.w3.org/2000/svg" xmlns:xlink="http://www.w3.org/1999/xlink" x="0px" y="0px"
	 viewBox="0 0 512 512" style="enable-background:new 0 0 512 512;" xml:space="preserve">
<style type="text/css">
	.st0{fill:url(#SVGID_1_); opacity:0.65}
	.st1{fill:none;stroke:#DD4B4B;stroke-miterlimit:10;}
	.st2{fill:url(#SVGID_2_);}
</style>
<g>
	<g>
		<linearGradient id="SVGID_1_" gradientUnits="userSpaceOnUse" x1="38" y1="258" x2="478.8476" y2="258">
			<stop  offset="5.000000e-02" style="stop-color:#C96DD7"/>
			<stop  offset="0.95" style="stop-color:#3123AE"/>
		</linearGradient>
		<path class="st0" d="M475.6,166.3c-2.5-2.8-5.9-4.3-9.6-4.3H416v-45.8c0-7.3-5.8-13.2-13-13.2H181V87.2c0-7.3-5.8-13.2-12.9-13.2
			H50.9C43.8,74,38,79.9,38,87.2l0,341.6c0,3,1,6,2.9,8.3c2.5,3,6.1,4.8,10,4.8h387.2c6.6,0,12.1-5,12.8-11.6l27.8-253.9
			C479.2,172.8,478,169.1,475.6,166.3z M427,416H66.9l46.4-228h338.7L427,416z"/>
	</g>
</g>
<path class="st1" d="M253.5,305"/>
<linearGradient id="SVGID_2_" gradientUnits="userSpaceOnUse" x1="2.3448" y1="57.9313" x2="2.3448" y2="57.9313">
	<stop  offset="5.000000e-02" style="stop-color:#C96DD7"/>
	<stop  offset="0.95" style="stop-color:#3123AE"/>
</linearGradient>
<path class="st2" d="M2.3,57.9"/>
</svg>
