<?xml version="1.0"?>
<svg xmlns="http://www.w3.org/2000/svg" height="512px" viewBox="0 0 64 64" width="512px" class=""><g><g id="Briefcase-2" data-name="Briefcase"><g fill="#78b9eb"><path d="m52 10v8.79l-4.02-2.77.02-.02v-6l2-3z" data-original="#78B9EB" class="active-path" style="fill:#C95CDF" data-old_color="#78B9EB"/><path d="m16.02 16.02-4.02 2.77v-8.79l2-3 2 3v6z" data-original="#78B9EB" class="active-path" style="fill:#C95CDF" data-old_color="#78B9EB"/><path d="m49 27v12h-3v-10z" data-original="#78B9EB" class="active-path" style="fill:#C95CDF" data-old_color="#78B9EB"/><path d="m46 29v10h-3v-12z" data-original="#78B9EB" class="active-path" style="fill:#C95CDF" data-old_color="#78B9EB"/><path d="m19 25v14h20v-14zm16 10h-12v-5h12z" data-original="#78B9EB" class="active-path" style="fill:#C95CDF" data-old_color="#78B9EB"/><path d="m56 32-5 7h-38l-5-6h-5v24h58v-25zm-37 19h-10v-5h10zm36 0h-10v-5h10z" data-original="#78B9EB" class="active-path" style="fill:#C95CDF" data-old_color="#78B9EB"/></g><path d="m23 36h12a1 1 0 0 0 1-1v-5a1 1 0 0 0 -1-1h-12a1 1 0 0 0 -1 1v5a1 1 0 0 0 1 1zm1-5h10v3h-10z" fill="#006df0" data-original="#006DF0" class="" style="fill:#80478D" data-old_color="#006df0"/><path d="m61.57 24.18-8.57-5.91v-8.27a.967.967 0 0 0 -.17-.55l-2-3a1.03 1.03 0 0 0 -1.66 0l-2 3a.967.967 0 0 0 -.17.55v4.13l-11.03-7.6a7.022 7.022 0 0 0 -7.94 0l-11.03 7.6v-4.13a.967.967 0 0 0 -.17-.55l-2-3a1.03 1.03 0 0 0 -1.66 0l-2 3a.967.967 0 0 0 -.17.55v8.27l-8.57 5.91a.983.983 0 0 0 -.43.82v32a5 5 0 0 0 5 5h50a5 5 0 0 0 5-5v-32a.983.983 0 0 0 -.43-.82zm-12.57-13.88 1-1.5 1 1.5v6.59l-2-1.38zm-36 0 1-1.5 1 1.5v5.21l-2 1.38zm-9 18.7h10v9h-.53l-4.7-5.64a.992.992 0 0 0 -.77-.36h-4zm53 31h-50a3.01 3.01 0 0 1 -2.82-2h55.64a3.01 3.01 0 0 1 -2.82 2zm3-4h-56v-22h3.53l4.7 5.64a.992.992 0 0 0 .77.36h38a1 1 0 0 0 .81-.42l4.7-6.58h3.49zm-44-18v-11a1 1 0 0 1 1-1h1v12zm4 0v-12h18v12zm20 0v-9h2v9zm6-10.2-1.65-1.1 1.65-2.76 1.65 2.76zm2 1.07v9.13h-1v-8.46zm-3 .67v8.46h-1v-9.13zm15 1.46h-4a1 1 0 0 0 -.81.42l-4.7 6.58h-.49v-9h10zm0-4h-10a1 1 0 0 0 -.14-.51l-3-5a1.037 1.037 0 0 0 -1.72 0l-3 5a1 1 0 0 0 -.14.51h-2v-2a1 1 0 0 0 -1-1h-22a3.009 3.009 0 0 0 -3 3h-10v-1.48l25.16-17.35a5.035 5.035 0 0 1 5.68 0l25.16 17.35z" fill="#006df0" data-original="#006DF0" class="" style="fill:#80478D" data-old_color="#006df0"/><path d="m19 45h-10a1 1 0 0 0 -1 1v5a1 1 0 0 0 1 1h10a1 1 0 0 0 1-1v-5a1 1 0 0 0 -1-1zm-1 5h-8v-3h8z" fill="#006df0" data-original="#006DF0" class="" style="fill:#80478D" data-old_color="#006df0"/><path d="m55 45h-10a1 1 0 0 0 -1 1v5a1 1 0 0 0 1 1h10a1 1 0 0 0 1-1v-5a1 1 0 0 0 -1-1zm-1 5h-8v-3h8z" fill="#006df0" data-original="#006DF0" class="" style="fill:#80478D" data-old_color="#006df0"/></g></g> </svg>
