<?xml version="1.0" encoding="utf-8"?>
<!-- Generator: Adobe Illustrator 24.0.2, SVG Export Plug-In . SVG Version: 6.00 Build 0)  -->
<svg version="1.1" id="Capa_1" xmlns="http://www.w3.org/2000/svg" xmlns:xlink="http://www.w3.org/1999/xlink" x="0px" y="0px"
	 viewBox="0 0 49.6 58.9" style="enable-background:new 0 0 49.6 58.9;" xml:space="preserve">
<style type="text/css">
	.st0{fill:none;stroke:url(#SVGID_1_);stroke-width:3;stroke-linecap:round;stroke-linejoin:round;}
	.st1{fill:none;stroke:url(#SVGID_2_);stroke-width:3;stroke-linecap:round;stroke-linejoin:round;}
	.st2{fill:none;stroke:url(#SVGID_3_);stroke-width:3;stroke-linecap:round;stroke-linejoin:round;}
	.st3{fill:none;stroke:url(#SVGID_4_);stroke-width:3;stroke-linecap:round;stroke-linejoin:round;}
	.st4{fill:none;stroke:url(#SVGID_5_);stroke-width:3;stroke-linecap:round;stroke-linejoin:round;}
	.st5{fill:none;stroke:url(#SVGID_6_);stroke-width:3;stroke-linecap:round;stroke-linejoin:round;}
</style>
<title>bin-delete</title>
<g id="Capa_2_1_">
	<g id="Capa_1-2">
		
			<linearGradient id="SVGID_1_" gradientUnits="userSpaceOnUse" x1="3.14" y1="1053.03" x2="46.14" y2="1053.03" gradientTransform="matrix(1 0 0 1 0 -1021)">
			<stop  offset="0" style="stop-color:#CC3"/>
			<stop  offset="1" style="stop-color:#bcbc21"/>
		</linearGradient>
		<path class="st0" d="M6.7,54.7c0.3,1.3,1.4,2.4,2.7,2.7H40c1.3-0.3,2.3-1.4,2.4-2.7l2.2-48.1h-40C5.3,22.7,6,38.7,6.7,54.7z"/>
		
			<linearGradient id="SVGID_2_" gradientUnits="userSpaceOnUse" x1="0" y1="1027.375" x2="49.57" y2="1027.375" gradientTransform="matrix(1 0 0 1 0 -1021)">
			<stop  offset="0" style="stop-color:#CC3"/>
			<stop  offset="1" style="stop-color:#bcbc21"/>
		</linearGradient>
		<polygon class="st1" points="48.1,6.3 1.5,6.4 15.3,6.4 		"/>
		
			<linearGradient id="SVGID_3_" gradientUnits="userSpaceOnUse" x1="14.08" y1="1024.7552" x2="36.08" y2="1024.7552" gradientTransform="matrix(1 0 0 1 0 -1021)">
			<stop  offset="0" style="stop-color:#CC3"/>
			<stop  offset="1" style="stop-color:#bcbc21"/>
		</linearGradient>
		<path class="st2" d="M30.6,2.5c-3.9-1.5-8.3-1.3-12,0.7c-1.2,0.7-2.3,1.6-3,2.8h19C33.7,4.4,32.3,3.2,30.6,2.5z"/>
		
			<linearGradient id="SVGID_4_" gradientUnits="userSpaceOnUse" x1="13.85" y1="1052.4301" x2="16.96" y2="1052.4301" gradientTransform="matrix(1 0 0 1 0 -1021)">
			<stop  offset="0" style="stop-color:#CC3"/>
			<stop  offset="1" style="stop-color:#bcbc21"/>
		</linearGradient>
		<path class="st3" d="M15.4,14.9c0,11,0.1,22,0.1,33"/>
		
			<linearGradient id="SVGID_5_" gradientUnits="userSpaceOnUse" x1="23.07" y1="1052.4301" x2="26.17" y2="1052.4301" gradientTransform="matrix(1 0 0 1 0 -1021)">
			<stop  offset="0" style="stop-color:#CC3"/>
			<stop  offset="1" style="stop-color:#bcbc21"/>
		</linearGradient>
		<path class="st4" d="M24.6,14.9c0,11,0,22,0.1,33"/>
		
			<linearGradient id="SVGID_6_" gradientUnits="userSpaceOnUse" x1="31.71" y1="1052.4301" x2="34.82" y2="1052.4301" gradientTransform="matrix(1 0 0 1 0 -1021)">
			<stop  offset="0" style="stop-color:#CC3"/>
			<stop  offset="1" style="stop-color:#bcbc21"/>
		</linearGradient>
		<path class="st5" d="M33.2,14.9c0,11,0.1,22,0.1,33"/>
	</g>
</g>
</svg>
