<?xml version="1.0" encoding="utf-8"?>
<!-- Generator: Adobe Illustrator 24.0.1, SVG Export Plug-In . SVG Version: 6.00 Build 0)  -->
<svg version="1.1" id="Gradient" xmlns="http://www.w3.org/2000/svg" xmlns:xlink="http://www.w3.org/1999/xlink" x="0px" y="0px"
	 viewBox="0 0 25 25" style="enable-background:new 0 0 25 25;" xml:space="preserve">
<style type="text/css">
	.st00001{fill:#FFFFFF;}
	.st10000{fill:none;stroke:#FFFFFF;stroke-width:2;stroke-miterlimit:10;}
</style>
<g>
	<path class="st00001" d="M14.5,6.3c-0.1,0.1-0.2,0.3-0.2,0.5L14.7,9l-1.8-1c-0.2-0.1-0.4-0.1-0.6,0l-1.8,1l0.4-2.2c0-0.2,0-0.4-0.2-0.5
		L9.1,4.7l2.1-0.3c0.2,0,0.4-0.2,0.4-0.3l0.9-2l0.9,2c0.1,0.2,0.2,0.3,0.4,0.3l2.1,0.3L14.5,6.3z"/>
	<rect class="st10000" x="2.1" y="15.3" class="st1" width="7" height="7"/>
	<rect class="st10000" x="16.2" y="15.3" class="st1" width="7" height="7"/>
	<rect class="st10000" x="9.1" y="12.3" class="st1" width="7" height="10"/>
</g>
</svg>
