<?xml version="1.0" encoding="UTF-8"?>
<svg width="15px" height="15px" viewBox="0 0 18 18" version="1.1" xmlns="http://www.w3.org/2000/svg" xmlns:xlink="http://www.w3.org/1999/xlink">
    <title>ic_logout</title>
    <g id="ic_logout" stroke="none" stroke-width="1" fill="none" fill-rule="evenodd">
        <g id="on-off-button" fill="#484848" fill-rule="nonzero" stroke="#484848" stroke-width="0.2">
            <path d="M6.75122275,7.43809406 L6.75122275,1.23968234 C6.75122275,0.555651566 7.31095084,0 8,0 C8.68904916,0 9.24877725,0.555651566 9.24877725,1.23968234 L9.24877725,7.43809406 C9.24877725,8.12212484 8.68904916,8.67777641 8,8.67777641 C7.31095084,8.67777641 6.75122275,8.12212484 6.75122275,7.43809406 Z M12.9500124,1.81771798 C12.5454696,1.49973254 11.955235,1.56951817 11.6349167,1.97177303 C11.3145984,2.37468625 11.3842328,2.95930544 11.790102,3.27794922 C13.2756362,4.4412624 14.1271657,6.18326956 14.1271657,8.05826441 C14.1271657,11.4119245 11.3782641,14.1408057 8.00066318,14.1408057 C4.62239907,14.1408057 1.87349747,11.4119245 1.87349747,8.05826441 C1.87349747,6.18392791 2.72436376,4.44257911 4.20857167,3.27992429 C4.61444085,2.96193886 4.68407527,2.37731967 4.36375694,1.9737481 C4.04343861,1.57083488 3.45519357,1.50236596 3.04799801,1.81969304 C1.11083478,3.33720117 0,5.61115912 0,8.05826441 C0,12.4376414 3.58915693,16 8,16 C12.4108431,16 16,12.4369831 16,8.05826441 C16,5.60984241 14.8878388,3.33588446 12.9500124,1.81771798 Z" id="Shape"></path>
        </g>
    </g>
</svg>