<svg id="Capa_1" data-name="Capa 1" xmlns="http://www.w3.org/2000/svg" xmlns:xlink="http://www.w3.org/1999/xlink" viewBox="0 0 512 512"><defs><style>.cls-1{fill:url(#Degradado_sin_nombre_2);}.cls-2{fill:url(#Degradado_sin_nombre_2-2);}.cls-3{fill:url(#Degradado_sin_nombre_2-3);}.cls-4{fill:url(#Degradado_sin_nombre_2-4);}.cls-5{fill:url(#Degradado_sin_nombre_2-5);}.cls-6{fill:url(#Degradado_sin_nombre_2-6);}.cls-7{fill:#fff;}</style><linearGradient id="Degradado_sin_nombre_2" x1="81" y1="30" x2="431" y2="30" gradientUnits="userSpaceOnUse"><stop offset="0.05" stop-color="#c96dd7"/><stop offset="0.95" stop-color="#3123ae"/></linearGradient><linearGradient id="Degradado_sin_nombre_2-2" x1="196" y1="172.28" x2="241" y2="172.28" xlink:href="#Degradado_sin_nombre_2"/><linearGradient id="Degradado_sin_nombre_2-3" x1="346" y1="174.12" x2="391" y2="174.12" xlink:href="#Degradado_sin_nombre_2"/><linearGradient id="Degradado_sin_nombre_2-4" x1="271" y1="172.28" x2="316" y2="172.28" xlink:href="#Degradado_sin_nombre_2"/><linearGradient id="Degradado_sin_nombre_2-5" x1="121" y1="174.13" x2="166" y2="174.13" xlink:href="#Degradado_sin_nombre_2"/><linearGradient id="Degradado_sin_nombre_2-6" x1="136" y1="392" x2="376" y2="392" xlink:href="#Degradado_sin_nombre_2"/></defs><title>winner</title><path class="cls-1" d="M431,60H81V0H431Z"/><path class="cls-2" d="M241,90H196V254.55a149.16,149.16,0,0,1,45-11.79Z"/><path class="cls-3" d="M346,90V258.25L385,229a15,15,0,0,0,6-12V90Z"/><path class="cls-4" d="M271,242.76a148.88,148.88,0,0,1,45,11.8V90H271Z"/><path class="cls-5" d="M166,90H121V217a15,15,0,0,0,6,12l39,29.25Z"/><path class="cls-6" d="M256,272A120,120,0,1,0,376,392,120.13,120.13,0,0,0,256,272Z"/><path class="cls-7" d="M306.17,455.56q0,11.44-12.95,11.44H220.29q-13.17,0-13.17-11.44c0-7.33,4.39-11,13.17-10.56H243V346.16l-21,12.73a11.16,11.16,0,0,1-5.39,1.73,9.5,9.5,0,0,1-7.66-3.89,13.41,13.41,0,0,1-3.13-8.63,10.82,10.82,0,0,1,5.61-9.71l33.45-20.72a24,24,0,0,1,12.3-3.88,13.13,13.13,0,0,1,9.71,3.67c2.44,2.44,3.67,5.82,4.1,10.14V445h22.22C301.86,444.56,306.17,448.23,306.17,455.56Z"/></svg>